REM DIRINDEX 1\6,1\2\7,1\2\8,1\2\9,1\3\10,1\3\11,1\4\12,1\4\13,1\4\14,1\5\15,1\5\16,1\5\17
REM DIRNAME cjc041,folder01,folder02,folder03,folder04,folder05,folder06,folder07,folder08,folder09,folder10,folder11,folder12,folder13,folder14,folder15,folder16
TITLE ""
FILE "3Q_t2_0829-0843.mp3" MP3
  TRACK 01 AUDIO
    TITLE "6:cjc041_5905"
    INDEX 01 00:00:00
  TRACK 02 AUDIO
    TITLE "0:"
    INDEX 01 00:10:66
  TRACK 03 AUDIO
    TITLE "7:cjc041_5906"
    INDEX 01 00:12:05
  TRACK 04 AUDIO
    TITLE "0:"
    INDEX 01 00:13:18
  TRACK 05 AUDIO
    TITLE "8:cjc041_5907"
    INDEX 01 00:13:73
  TRACK 06 AUDIO
    TITLE "0:"
    INDEX 01 00:15:15
  TRACK 07 AUDIO
    TITLE "9:cjc041_5908"
    INDEX 01 00:15:68
  TRACK 08 AUDIO
    TITLE "0:"
    INDEX 01 00:17:06
  TRACK 09 AUDIO
    TITLE "7:cjc041_5909"
    INDEX 01 00:18:68
  TRACK 10 AUDIO
    TITLE "0:"
    INDEX 01 00:20:00
  TRACK 11 AUDIO
    TITLE "8:cjc041_5910"
    INDEX 01 00:20:59
  TRACK 12 AUDIO
    TITLE "0:"
    INDEX 01 00:21:70
  TRACK 13 AUDIO
    TITLE "9:cjc041_5911"
    INDEX 01 00:22:54
  TRACK 14 AUDIO
    TITLE "0:"
    INDEX 01 00:23:63
  TRACK 15 AUDIO
    TITLE "7:cjc041_5912"
    INDEX 01 00:25:43
  TRACK 16 AUDIO
    TITLE "0:"
    INDEX 01 00:26:58
  TRACK 17 AUDIO
    TITLE "8:cjc041_5913"
    INDEX 01 00:27:36
  TRACK 18 AUDIO
    TITLE "0:"
    INDEX 01 00:28:66
  TRACK 19 AUDIO
    TITLE "9:cjc041_5914"
    INDEX 01 00:29:50
  TRACK 20 AUDIO
    TITLE "0:"
    INDEX 01 00:30:67
  TRACK 21 AUDIO
    TITLE "7:cjc041_5915"
    INDEX 01 00:32:43
  TRACK 22 AUDIO
    TITLE "0:"
    INDEX 01 00:33:60
  TRACK 23 AUDIO
    TITLE "8:cjc041_5916"
    INDEX 01 00:34:42
  TRACK 24 AUDIO
    TITLE "0:"
    INDEX 01 00:35:66
  TRACK 25 AUDIO
    TITLE "9:cjc041_5917"
    INDEX 01 00:36:46
  TRACK 26 AUDIO
    TITLE "0:"
    INDEX 01 00:37:67
  TRACK 27 AUDIO
    TITLE "7:cjc041_5918"
    INDEX 01 00:39:47
  TRACK 28 AUDIO
    TITLE "0:"
    INDEX 01 00:40:58
  TRACK 29 AUDIO
    TITLE "8:cjc041_5919"
    INDEX 01 00:41:30
  TRACK 30 AUDIO
    TITLE "0:"
    INDEX 01 00:42:51
  TRACK 31 AUDIO
    TITLE "9:cjc041_5920"
    INDEX 01 00:43:29
  TRACK 32 AUDIO
    TITLE "0:"
    INDEX 01 00:44:36
  TRACK 33 AUDIO
    TITLE "7:cjc041_5921"
    INDEX 01 00:46:15
  TRACK 34 AUDIO
    TITLE "0:"
    INDEX 01 00:47:34
  TRACK 35 AUDIO
    TITLE "8:cjc041_5922"
    INDEX 01 00:48:10
  TRACK 36 AUDIO
    TITLE "0:"
    INDEX 01 00:49:33
  TRACK 37 AUDIO
    TITLE "9:cjc041_5923"
    INDEX 01 00:50:15
  TRACK 38 AUDIO
    TITLE "0:"
    INDEX 01 00:51:36
  TRACK 39 AUDIO
    TITLE "7:cjc041_5924"
    INDEX 01 00:53:17
  TRACK 40 AUDIO
    TITLE "0:"
    INDEX 01 00:54:29
  TRACK 41 AUDIO
    TITLE "8:cjc041_5925"
    INDEX 01 00:55:08
  TRACK 42 AUDIO
    TITLE "0:"
    INDEX 01 00:57:72
  TRACK 43 AUDIO
    TITLE "9:cjc041_5926"
    INDEX 01 00:58:52
  TRACK 44 AUDIO
    TITLE "0:"
    INDEX 01 00:59:63
  TRACK 45 AUDIO
    TITLE "7:cjc041_5927"
    INDEX 01 01:01:44
  TRACK 46 AUDIO
    TITLE "0:"
    INDEX 01 01:02:48
  TRACK 47 AUDIO
    TITLE "8:cjc041_5928"
    INDEX 01 01:03:24
  TRACK 48 AUDIO
    TITLE "0:"
    INDEX 01 01:04:37
  TRACK 49 AUDIO
    TITLE "9:cjc041_5929"
    INDEX 01 01:05:15
  TRACK 50 AUDIO
    TITLE "0:"
    INDEX 01 01:06:18
  TRACK 51 AUDIO
    TITLE "7:cjc041_5930"
    INDEX 01 01:07:74
  TRACK 52 AUDIO
    TITLE "0:"
    INDEX 01 01:09:07
  TRACK 53 AUDIO
    TITLE "8:cjc041_5931"
    INDEX 01 01:09:52
  TRACK 54 AUDIO
    TITLE "0:"
    INDEX 01 01:10:57
  TRACK 55 AUDIO
    TITLE "9:cjc041_5932"
    INDEX 01 01:11:31
  TRACK 56 AUDIO
    TITLE "0:"
    INDEX 01 01:12:40
  TRACK 57 AUDIO
    TITLE "7:cjc041_5933"
    INDEX 01 01:14:21
  TRACK 58 AUDIO
    TITLE "0:"
    INDEX 01 01:15:37
  TRACK 59 AUDIO
    TITLE "8:cjc041_5934"
    INDEX 01 01:16:14
  TRACK 60 AUDIO
    TITLE "0:"
    INDEX 01 01:18:04
  TRACK 61 AUDIO
    TITLE "9:cjc041_5935"
    INDEX 01 01:18:62
  TRACK 62 AUDIO
    TITLE "0:"
    INDEX 01 01:20:06
  TRACK 63 AUDIO
    TITLE "7:cjc041_5936"
    INDEX 01 01:21:65
  TRACK 64 AUDIO
    TITLE "0:"
    INDEX 01 01:23:03
  TRACK 65 AUDIO
    TITLE "8:cjc041_5937"
    INDEX 01 01:23:62
  TRACK 66 AUDIO
    TITLE "0:"
    INDEX 01 01:26:21
  TRACK 67 AUDIO
    TITLE "9:cjc041_5938"
    INDEX 01 01:26:72
  TRACK 68 AUDIO
    TITLE "0:"
    INDEX 01 01:28:12
  TRACK 69 AUDIO
    TITLE "7:cjc041_5939"
    INDEX 01 01:29:66
  TRACK 70 AUDIO
    TITLE "0:"
    INDEX 01 01:31:06
  TRACK 71 AUDIO
    TITLE "8:cjc041_5940"
    INDEX 01 01:31:59
  TRACK 72 AUDIO
    TITLE "0:"
    INDEX 01 01:34:52
  TRACK 73 AUDIO
    TITLE "9:cjc041_5941"
    INDEX 01 01:35:29
  TRACK 74 AUDIO
    TITLE "0:"
    INDEX 01 01:36:48
  TRACK 75 AUDIO
    TITLE "7:cjc041_5942"
    INDEX 01 01:38:32
  TRACK 76 AUDIO
    TITLE "0:"
    INDEX 01 01:39:45
  TRACK 77 AUDIO
    TITLE "8:cjc041_5943"
    INDEX 01 01:40:17
  TRACK 78 AUDIO
    TITLE "0:"
    INDEX 01 01:41:56
  TRACK 79 AUDIO
    TITLE "9:cjc041_5944"
    INDEX 01 01:42:35
  TRACK 80 AUDIO
    TITLE "0:"
    INDEX 01 01:43:49
  TRACK 81 AUDIO
    TITLE "7:cjc041_5945"
    INDEX 01 01:45:26
  TRACK 82 AUDIO
    TITLE "0:"
    INDEX 01 01:46:43
  TRACK 83 AUDIO
    TITLE "8:cjc041_5946"
    INDEX 01 01:47:19
  TRACK 84 AUDIO
    TITLE "0:"
    INDEX 01 01:48:48
  TRACK 85 AUDIO
    TITLE "9:cjc041_5947"
    INDEX 01 01:49:20
  TRACK 86 AUDIO
    TITLE "0:"
    INDEX 01 01:50:37
  TRACK 87 AUDIO
    TITLE "7:cjc041_5948"
    INDEX 01 01:52:12
  TRACK 88 AUDIO
    TITLE "0:"
    INDEX 01 01:53:21
  TRACK 89 AUDIO
    TITLE "8:cjc041_5949"
    INDEX 01 01:53:74
  TRACK 90 AUDIO
    TITLE "0:"
    INDEX 01 01:55:18
  TRACK 91 AUDIO
    TITLE "9:cjc041_5950"
    INDEX 01 01:55:67
  TRACK 92 AUDIO
    TITLE "0:"
    INDEX 01 01:57:06
